<svg width="580" height="418" viewBox="0 0 580 418" fill="none" xmlns="http://www.w3.org/2000/svg">
<path fill-rule="evenodd" clip-rule="evenodd" d="M476.307 174.801C483.395 250.665 293.876 381.702 183.354 304.426C-1.68494 175.047 180.136 187.265 274.703 133.421C371.511 78.3015 465.825 62.6257 476.307 174.801Z" fill="#DDE3E9"/>
<path fill-rule="evenodd" clip-rule="evenodd" d="M243.852 88.9721C238.33 94.1363 232.498 97.3038 229.417 97.1717C221.69 96.8406 215.32 70.1845 218.743 58.4146C222.165 46.6447 250.325 35.846 256.244 56.4666C258.298 63.6234 256.625 70.7555 253.242 77.0041L269.331 112.955L245.855 117.944L243.852 88.9721Z" fill="#B28B67"/>
<path fill-rule="evenodd" clip-rule="evenodd" d="M256.048 81.3328C256.208 67.5983 262.703 56.8787 260.175 51.2923C257.648 45.706 251.793 45.4581 251.793 45.4581C251.793 45.4581 246.453 34.4529 231.172 39.5137C215.892 44.5745 207.721 53.1038 214.886 66.5277C218.678 65.7217 222.964 63.3775 229.792 64.3815C233.043 64.8594 235.576 70.4007 235.576 70.4007L238.436 69.7928C238.436 69.7928 241.133 62.0045 245.569 62.9739C250.006 63.9433 249.299 71.4715 249.299 71.4715L253.005 81.9796L256.048 81.3328Z" fill="#191847"/>
<path fill-rule="evenodd" clip-rule="evenodd" d="M321.5 179L247.194 303.227L191.485 408.25H179.486L272.826 179L321.5 179Z" fill="#997659"/>
<path fill-rule="evenodd" clip-rule="evenodd" d="M196.05 402.284C197.122 401.813 198.396 402.29 198.795 403.391C199.523 405.398 200.5 408.409 200.5 410.106C200.5 412.811 199.599 418 199.599 418C196.461 418 143.197 418 143.197 418C143.197 418 140.998 410.732 145.735 410.152C150.472 409.573 153.605 409.106 153.605 409.106L179.82 397.419C180.335 397.189 180.937 397.43 181.152 397.951L182.837 402.039C182.837 402.039 187.222 404.085 189.963 404.085C191.632 404.085 194.254 403.074 196.05 402.284Z" fill="#E4E4E4"/>
<path fill-rule="evenodd" clip-rule="evenodd" d="M206.957 391.433L183.817 384.433C183.817 384.433 199.024 338.971 221.095 284.374C243.165 229.778 268.5 179 268.5 179H333.856C333.856 179 305.689 243.232 274.134 295.725C242.579 348.219 206.957 391.433 206.957 391.433Z" fill="#21265B"/>
<path fill-rule="evenodd" clip-rule="evenodd" d="M326.384 179C333.397 222.654 346.923 278.427 348.2 280.149C349.051 281.296 379.688 291.562 440.11 310.947L437.518 321.528C365.464 311.132 327.498 303.066 323.619 297.331C317.802 288.728 288.752 220.763 277.5 179H326.384Z" fill="#B28B67"/>
<path fill-rule="evenodd" clip-rule="evenodd" d="M418.871 301.8L414.305 318.842C360.413 323.569 327.392 320.153 315.242 308.596C303.093 297.039 289.246 253.84 273.701 179H336.022C345.871 240.284 351.377 272.212 352.54 274.785C353.703 277.357 375.814 286.363 418.871 301.8Z" fill="#2F3676"/>
<path fill-rule="evenodd" clip-rule="evenodd" d="M435.569 309.074C435.291 307.937 435.982 306.765 437.135 306.563C439.239 306.195 442.373 305.756 444.044 306.05C446.708 306.52 451.662 308.309 451.662 308.309C451.117 311.399 441.868 363.854 441.868 363.854C441.868 363.854 434.328 364.757 434.58 359.991C434.832 355.226 434.916 352.059 434.916 352.059L427.959 324.213C427.823 323.667 428.164 323.115 428.715 322.994L433.033 322.044C433.033 322.044 435.809 318.081 436.285 315.381C436.575 313.738 436.035 310.98 435.569 309.074Z" fill="#E4E4E4"/>
<path fill-rule="evenodd" clip-rule="evenodd" d="M173.864 185.901L212.654 176.78L212.38 195.832L177.919 195.456C165.516 201.676 159.165 203.763 158.866 201.716C158.613 199.99 159.8 198.984 160.892 198.058C161.743 197.336 162.538 196.663 162.551 195.735C162.581 193.615 156.929 191.414 151.477 189.557C146.025 187.699 148.554 186.001 150.316 185.383C157.067 184.457 164.916 184.63 173.864 185.901ZM387.946 207.605C383.08 203.105 331.722 140.863 331.722 140.863L311.308 148.787C311.308 148.787 373.979 211.547 376.789 214.563C380.439 218.482 379.847 226.438 379.446 231.833C379.384 232.667 379.326 233.441 379.29 234.128C382.793 234.318 383.609 232.15 384.468 229.864C385.439 227.282 386.467 224.549 391.488 224.896C393.428 225.03 395.333 225.337 397.194 225.638C403.623 226.675 409.528 227.628 414.541 221.054C415.336 220.012 415.548 217.154 412.065 216.322C403.388 214.249 390.325 209.805 387.946 207.605Z" fill="#997659"/>
<path fill-rule="evenodd" clip-rule="evenodd" d="M250.837 97.5209L235.241 104.731C244.989 141.908 232.164 172.678 181.162 183.505L192.405 231.884C239.567 220.443 272.068 187.327 261.447 135.521C258.698 122.11 255.312 108.355 250.837 97.5209Z" fill="#B59D05"/>
<path fill-rule="evenodd" clip-rule="evenodd" d="M381.591 199.432C347.781 144.568 306.765 107.827 258.543 89.2071L257.007 89.7967L256.955 89.8168L256.948 89.8366L234.829 104.7C246.011 133.831 247.886 158.086 249.688 181.405C250.466 191.475 251.231 201.37 252.726 211.408L318.222 186.267C323.213 196.509 327.96 207.184 332.55 218.257L381.591 199.432Z" fill="#D5B900"/>
<path fill-rule="evenodd" clip-rule="evenodd" d="M318.222 186.267C308.062 165.413 296.895 146.348 284.007 129.346C293.076 149.338 303.155 174.588 304.911 191.377L318.222 186.267Z" fill="black" fill-opacity="0.1"/>
</svg>
